<mxfile host="app.diagrams.net" modified="2022-02-25T11:32:26.755Z" agent="5.0 (Windows NT 10.0; Win64; x64) AppleWebKit/537.36 (KHTML, like Gecko) Chrome/98.0.4758.102 Safari/537.36" etag="UC-M8Q4DFKjt9spYWwaK" version="16.6.3" type="github">
  <diagram id="iieVheR3wLpvFdgMA_LG" name="Page-1">
    <mxGraphModel dx="1861" dy="934" grid="1" gridSize="10" guides="1" tooltips="1" connect="1" arrows="1" fold="1" page="1" pageScale="1" pageWidth="1654" pageHeight="1169" math="1" shadow="0">
      <root>
        <mxCell id="0" />
        <mxCell id="1" parent="0" />
        <mxCell id="rV2gyTp01KgFeFo_tIqa-158" value="" style="rounded=1;whiteSpace=wrap;html=1;fillColor=none;strokeWidth=2;dashed=1;" vertex="1" parent="1">
          <mxGeometry x="1197.87" y="510.33000000000004" width="350" height="300" as="geometry" />
        </mxCell>
        <mxCell id="rV2gyTp01KgFeFo_tIqa-159" value="" style="rounded=1;whiteSpace=wrap;html=1;fillColor=none;strokeWidth=2;shadow=0;sketch=0;glass=0;dashed=1;" vertex="1" parent="1">
          <mxGeometry x="787" y="510" width="350" height="300" as="geometry" />
        </mxCell>
        <mxCell id="rV2gyTp01KgFeFo_tIqa-160" value="" style="edgeStyle=none;rounded=0;orthogonalLoop=1;jettySize=auto;html=1;endArrow=none;endFill=0;fillColor=#e1d5e7;startArrow=none;startFill=0;strokeWidth=2;fillOpacity=100;" edge="1" parent="1" source="rV2gyTp01KgFeFo_tIqa-161" target="rV2gyTp01KgFeFo_tIqa-168">
          <mxGeometry relative="1" as="geometry" />
        </mxCell>
        <mxCell id="rV2gyTp01KgFeFo_tIqa-161" value="" style="ellipse;whiteSpace=wrap;html=1;strokeColor=none;fillColor=#FFD966;fillOpacity=100;" vertex="1" parent="1">
          <mxGeometry x="502" y="651.5" width="20" height="20" as="geometry" />
        </mxCell>
        <mxCell id="rV2gyTp01KgFeFo_tIqa-162" value="" style="rounded=0;orthogonalLoop=1;jettySize=auto;html=1;endArrow=none;endFill=0;fillColor=#e1d5e7;strokeWidth=2;startArrow=none;startFill=0;fillOpacity=100;" edge="1" parent="1" source="rV2gyTp01KgFeFo_tIqa-163" target="rV2gyTp01KgFeFo_tIqa-161">
          <mxGeometry relative="1" as="geometry" />
        </mxCell>
        <mxCell id="rV2gyTp01KgFeFo_tIqa-163" value="" style="ellipse;whiteSpace=wrap;html=1;strokeColor=none;fillOpacity=100;fillColor=#000000;" vertex="1" parent="1">
          <mxGeometry x="542" y="710.5" width="20" height="20" as="geometry" />
        </mxCell>
        <mxCell id="rV2gyTp01KgFeFo_tIqa-164" value="" style="edgeStyle=none;rounded=0;orthogonalLoop=1;jettySize=auto;html=1;endArrow=none;endFill=0;fillColor=#e1d5e7;startArrow=none;startFill=0;strokeWidth=2;fillOpacity=100;" edge="1" parent="1" source="rV2gyTp01KgFeFo_tIqa-166" target="rV2gyTp01KgFeFo_tIqa-161">
          <mxGeometry relative="1" as="geometry" />
        </mxCell>
        <mxCell id="rV2gyTp01KgFeFo_tIqa-165" value="" style="edgeStyle=none;rounded=0;orthogonalLoop=1;jettySize=auto;html=1;endArrow=none;endFill=0;fillColor=#e1d5e7;startArrow=none;startFill=0;strokeWidth=2;fillOpacity=100;" edge="1" parent="1" source="rV2gyTp01KgFeFo_tIqa-166" target="rV2gyTp01KgFeFo_tIqa-163">
          <mxGeometry relative="1" as="geometry" />
        </mxCell>
        <mxCell id="rV2gyTp01KgFeFo_tIqa-166" value="" style="ellipse;whiteSpace=wrap;html=1;strokeColor=none;fillOpacity=100;fillColor=#000000;" vertex="1" parent="1">
          <mxGeometry x="582" y="651.5" width="20" height="20" as="geometry" />
        </mxCell>
        <mxCell id="rV2gyTp01KgFeFo_tIqa-167" value="" style="edgeStyle=none;rounded=0;orthogonalLoop=1;jettySize=auto;html=1;endArrow=none;endFill=0;fillColor=#dae8fc;startArrow=none;startFill=0;strokeWidth=2;fillOpacity=100;" edge="1" parent="1" source="rV2gyTp01KgFeFo_tIqa-168" target="rV2gyTp01KgFeFo_tIqa-177">
          <mxGeometry relative="1" as="geometry" />
        </mxCell>
        <mxCell id="rV2gyTp01KgFeFo_tIqa-168" value="" style="ellipse;whiteSpace=wrap;html=1;strokeColor=none;fillOpacity=100;fillColor=#000000;" vertex="1" parent="1">
          <mxGeometry x="432" y="601.5" width="20" height="20" as="geometry" />
        </mxCell>
        <mxCell id="rV2gyTp01KgFeFo_tIqa-169" value="" style="edgeStyle=none;rounded=0;orthogonalLoop=1;jettySize=auto;html=1;endArrow=none;endFill=0;fillColor=#e1d5e7;strokeWidth=2;fillOpacity=100;" edge="1" parent="1" source="rV2gyTp01KgFeFo_tIqa-170" target="rV2gyTp01KgFeFo_tIqa-161">
          <mxGeometry relative="1" as="geometry" />
        </mxCell>
        <mxCell id="rV2gyTp01KgFeFo_tIqa-170" value="" style="ellipse;whiteSpace=wrap;html=1;strokeColor=none;fillOpacity=100;fillColor=#000000;" vertex="1" parent="1">
          <mxGeometry x="442" y="691.5" width="20" height="20" as="geometry" />
        </mxCell>
        <mxCell id="rV2gyTp01KgFeFo_tIqa-171" value="" style="edgeStyle=none;rounded=0;orthogonalLoop=1;jettySize=auto;html=1;endArrow=none;endFill=0;fillColor=#e1d5e7;strokeWidth=2;fillOpacity=100;" edge="1" parent="1" source="rV2gyTp01KgFeFo_tIqa-172" target="rV2gyTp01KgFeFo_tIqa-161">
          <mxGeometry relative="1" as="geometry" />
        </mxCell>
        <mxCell id="rV2gyTp01KgFeFo_tIqa-172" value="" style="ellipse;whiteSpace=wrap;html=1;strokeColor=none;fillOpacity=100;fillColor=#000000;" vertex="1" parent="1">
          <mxGeometry x="522" y="580.5" width="20" height="20" as="geometry" />
        </mxCell>
        <mxCell id="rV2gyTp01KgFeFo_tIqa-173" value="" style="edgeStyle=none;rounded=0;orthogonalLoop=1;jettySize=auto;html=1;endArrow=none;endFill=0;fillColor=#dae8fc;strokeWidth=2;fillOpacity=100;" edge="1" parent="1" source="rV2gyTp01KgFeFo_tIqa-174" target="rV2gyTp01KgFeFo_tIqa-168">
          <mxGeometry relative="1" as="geometry" />
        </mxCell>
        <mxCell id="rV2gyTp01KgFeFo_tIqa-174" value="" style="ellipse;whiteSpace=wrap;html=1;strokeColor=none;fillColor=#000000;direction=south;fillOpacity=100;" vertex="1" parent="1">
          <mxGeometry x="422" y="550.5" width="20" height="20" as="geometry" />
        </mxCell>
        <mxCell id="rV2gyTp01KgFeFo_tIqa-175" value="" style="edgeStyle=none;rounded=0;orthogonalLoop=1;jettySize=auto;html=1;endArrow=none;endFill=0;fillColor=#dae8fc;strokeWidth=2;fillOpacity=100;" edge="1" parent="1" source="rV2gyTp01KgFeFo_tIqa-176" target="rV2gyTp01KgFeFo_tIqa-166">
          <mxGeometry relative="1" as="geometry" />
        </mxCell>
        <mxCell id="rV2gyTp01KgFeFo_tIqa-176" value="" style="ellipse;whiteSpace=wrap;html=1;strokeColor=none;fillOpacity=100;fillColor=#000000;" vertex="1" parent="1">
          <mxGeometry x="612" y="601.5" width="20" height="20" as="geometry" />
        </mxCell>
        <mxCell id="rV2gyTp01KgFeFo_tIqa-177" value="" style="ellipse;whiteSpace=wrap;html=1;strokeColor=none;fillColor=#000000;fillOpacity=100;" vertex="1" parent="1">
          <mxGeometry x="402" y="651.5" width="20" height="20" as="geometry" />
        </mxCell>
        <mxCell id="rV2gyTp01KgFeFo_tIqa-178" value="" style="ellipse;whiteSpace=wrap;html=1;strokeColor=none;fillColor=#000000;fillOpacity=100;" vertex="1" parent="1">
          <mxGeometry x="632" y="710.5" width="20" height="21" as="geometry" />
        </mxCell>
        <mxCell id="rV2gyTp01KgFeFo_tIqa-179" value="" style="endArrow=none;html=1;strokeWidth=2;exitX=1;exitY=1;exitDx=0;exitDy=0;entryX=0;entryY=0;entryDx=0;entryDy=0;endFill=0;startArrow=none;startFill=0;fillOpacity=100;" edge="1" parent="1" source="rV2gyTp01KgFeFo_tIqa-166" target="rV2gyTp01KgFeFo_tIqa-178">
          <mxGeometry width="50" height="50" relative="1" as="geometry">
            <mxPoint x="602" y="700.5" as="sourcePoint" />
            <mxPoint x="637" y="744.5" as="targetPoint" />
          </mxGeometry>
        </mxCell>
        <mxCell id="rV2gyTp01KgFeFo_tIqa-180" value="" style="ellipse;whiteSpace=wrap;html=1;strokeColor=none;fillOpacity=100;fillColor=#000000;" vertex="1" parent="1">
          <mxGeometry x="652" y="550.5" width="20" height="20" as="geometry" />
        </mxCell>
        <mxCell id="rV2gyTp01KgFeFo_tIqa-181" value="" style="endArrow=none;startArrow=none;html=1;strokeWidth=2;exitX=1;exitY=0;exitDx=0;exitDy=0;entryX=0;entryY=1;entryDx=0;entryDy=0;startFill=0;endFill=0;fillOpacity=100;" edge="1" parent="1" source="rV2gyTp01KgFeFo_tIqa-176" target="rV2gyTp01KgFeFo_tIqa-180">
          <mxGeometry width="50" height="50" relative="1" as="geometry">
            <mxPoint x="642" y="621.5" as="sourcePoint" />
            <mxPoint x="692" y="571.5" as="targetPoint" />
          </mxGeometry>
        </mxCell>
        <mxCell id="rV2gyTp01KgFeFo_tIqa-182" style="edgeStyle=orthogonalEdgeStyle;rounded=0;orthogonalLoop=1;jettySize=auto;html=1;exitX=1;exitY=0.75;exitDx=0;exitDy=0;entryX=0;entryY=0.75;entryDx=0;entryDy=0;startArrow=none;startFill=0;endArrow=blockThin;endFill=1;strokeColor=#000000;strokeWidth=3;fillColor=#ffffff;" edge="1" parent="1" source="rV2gyTp01KgFeFo_tIqa-184" target="rV2gyTp01KgFeFo_tIqa-159">
          <mxGeometry relative="1" as="geometry" />
        </mxCell>
        <mxCell id="rV2gyTp01KgFeFo_tIqa-183" style="edgeStyle=orthogonalEdgeStyle;rounded=0;orthogonalLoop=1;jettySize=auto;html=1;exitX=1;exitY=0.25;exitDx=0;exitDy=0;entryX=0;entryY=0.25;entryDx=0;entryDy=0;startArrow=none;startFill=0;endArrow=blockThin;endFill=1;strokeColor=#000000;strokeWidth=3;fillColor=#ffffff;" edge="1" parent="1" source="rV2gyTp01KgFeFo_tIqa-184" target="rV2gyTp01KgFeFo_tIqa-159">
          <mxGeometry relative="1" as="geometry" />
        </mxCell>
        <mxCell id="rV2gyTp01KgFeFo_tIqa-184" value="" style="rounded=1;whiteSpace=wrap;html=1;fillColor=none;strokeWidth=2;dashed=1;" vertex="1" parent="1">
          <mxGeometry x="370" y="510" width="350" height="300" as="geometry" />
        </mxCell>
        <mxCell id="rV2gyTp01KgFeFo_tIqa-185" value="&lt;b&gt;&lt;font style=&quot;font-size: 24px&quot;&gt;输入网络&lt;/font&gt;&lt;/b&gt;" style="text;html=1;strokeColor=none;fillColor=none;align=center;verticalAlign=middle;whiteSpace=wrap;rounded=0;" vertex="1" parent="1">
          <mxGeometry x="418.25" y="768.83" width="227.5" height="20" as="geometry" />
        </mxCell>
        <mxCell id="rV2gyTp01KgFeFo_tIqa-186" value="&lt;b&gt;&lt;font style=&quot;font-size: 24px&quot;&gt;细粒度聚合器&lt;/font&gt;&lt;/b&gt;" style="text;html=1;strokeColor=none;fillColor=none;align=center;verticalAlign=middle;whiteSpace=wrap;rounded=0;" vertex="1" parent="1">
          <mxGeometry x="810" y="768.83" width="317.6" height="20" as="geometry" />
        </mxCell>
        <mxCell id="rV2gyTp01KgFeFo_tIqa-187" style="edgeStyle=orthogonalEdgeStyle;rounded=0;orthogonalLoop=1;jettySize=auto;html=1;exitX=0.5;exitY=0;exitDx=0;exitDy=0;entryX=0.5;entryY=0;entryDx=0;entryDy=0;startArrow=none;startFill=0;endArrow=blockThin;endFill=1;strokeColor=#000000;strokeWidth=3;fillColor=#ffffff;" edge="1" parent="1" source="rV2gyTp01KgFeFo_tIqa-159" target="rV2gyTp01KgFeFo_tIqa-193">
          <mxGeometry relative="1" as="geometry" />
        </mxCell>
        <mxCell id="rV2gyTp01KgFeFo_tIqa-188" style="edgeStyle=orthogonalEdgeStyle;rounded=0;orthogonalLoop=1;jettySize=auto;html=1;exitX=1;exitY=0.5;exitDx=0;exitDy=0;entryX=0;entryY=0.5;entryDx=0;entryDy=0;startArrow=none;startFill=0;endArrow=blockThin;endFill=1;strokeColor=#000000;strokeWidth=3;fillColor=#ffffff;" edge="1" parent="1" source="rV2gyTp01KgFeFo_tIqa-159" target="rV2gyTp01KgFeFo_tIqa-158">
          <mxGeometry relative="1" as="geometry" />
        </mxCell>
        <mxCell id="rV2gyTp01KgFeFo_tIqa-189" value="&lt;font size=&quot;1&quot;&gt;&lt;b style=&quot;font-size: 24px&quot;&gt;粗粒度聚合器&lt;/b&gt;&lt;/font&gt;" style="text;html=1;strokeColor=none;fillColor=none;align=center;verticalAlign=middle;whiteSpace=wrap;rounded=0;" vertex="1" parent="1">
          <mxGeometry x="1197.99" y="768.83" width="356.7" height="20" as="geometry" />
        </mxCell>
        <mxCell id="rV2gyTp01KgFeFo_tIqa-190" value="&lt;font size=&quot;1&quot;&gt;&lt;b style=&quot;font-size: 24px&quot;&gt;一阶嵌入信息&lt;/b&gt;&lt;/font&gt;" style="text;html=1;strokeColor=none;fillColor=none;align=center;verticalAlign=middle;whiteSpace=wrap;rounded=0;" vertex="1" parent="1">
          <mxGeometry x="1190" y="450" width="296.74" height="20" as="geometry" />
        </mxCell>
        <mxCell id="rV2gyTp01KgFeFo_tIqa-191" value="&lt;font face=&quot;Times New Roman&quot; size=&quot;1&quot;&gt;&lt;b style=&quot;font-size: 24px&quot;&gt;高阶嵌入信息&lt;/b&gt;&lt;/font&gt;" style="text;html=1;strokeColor=none;fillColor=none;align=center;verticalAlign=middle;whiteSpace=wrap;rounded=0;strokeWidth=4;" vertex="1" parent="1">
          <mxGeometry x="1554.21" y="687.83" width="150" height="20" as="geometry" />
        </mxCell>
        <mxCell id="rV2gyTp01KgFeFo_tIqa-192" value="&lt;font face=&quot;Times New Roman&quot; size=&quot;1&quot;&gt;&lt;b style=&quot;font-size: 24px&quot;&gt;嵌入信息结合&lt;/b&gt;&lt;/font&gt;" style="text;html=1;strokeColor=none;fillColor=none;align=center;verticalAlign=middle;whiteSpace=wrap;rounded=0;" vertex="1" parent="1">
          <mxGeometry x="1671.12" y="810" width="103.75" height="18.33" as="geometry" />
        </mxCell>
        <mxCell id="rV2gyTp01KgFeFo_tIqa-193" value="" style="whiteSpace=wrap;html=1;aspect=fixed;strokeWidth=1;fillColor=#FF9933;" vertex="1" parent="1">
          <mxGeometry x="1708" y="538.83" width="30" height="30" as="geometry" />
        </mxCell>
        <mxCell id="rV2gyTp01KgFeFo_tIqa-194" value="" style="whiteSpace=wrap;html=1;aspect=fixed;strokeWidth=1;fillColor=#FFD966;" vertex="1" parent="1">
          <mxGeometry x="1708" y="568.83" width="30" height="30" as="geometry" />
        </mxCell>
        <mxCell id="rV2gyTp01KgFeFo_tIqa-195" value="" style="whiteSpace=wrap;html=1;aspect=fixed;strokeWidth=1;fillColor=#FF9933;" vertex="1" parent="1">
          <mxGeometry x="1708" y="598.83" width="30" height="30" as="geometry" />
        </mxCell>
        <mxCell id="rV2gyTp01KgFeFo_tIqa-196" value="" style="whiteSpace=wrap;html=1;aspect=fixed;strokeWidth=1;fillColor=#FFD966;" vertex="1" parent="1">
          <mxGeometry x="1708" y="628.8299999999999" width="30" height="30" as="geometry" />
        </mxCell>
        <mxCell id="rV2gyTp01KgFeFo_tIqa-197" value="" style="whiteSpace=wrap;html=1;aspect=fixed;strokeWidth=1;fillColor=#0066CC;" vertex="1" parent="1">
          <mxGeometry x="1708" y="657.8299999999999" width="30" height="30" as="geometry" />
        </mxCell>
        <mxCell id="rV2gyTp01KgFeFo_tIqa-198" value="" style="whiteSpace=wrap;html=1;aspect=fixed;strokeWidth=1;fillColor=#A9C4EB;" vertex="1" parent="1">
          <mxGeometry x="1708" y="687.8299999999999" width="30" height="30" as="geometry" />
        </mxCell>
        <mxCell id="rV2gyTp01KgFeFo_tIqa-199" value="" style="whiteSpace=wrap;html=1;aspect=fixed;strokeWidth=1;fillColor=#0066CC;" vertex="1" parent="1">
          <mxGeometry x="1708" y="717.8299999999999" width="30" height="30" as="geometry" />
        </mxCell>
        <mxCell id="rV2gyTp01KgFeFo_tIqa-200" value="" style="whiteSpace=wrap;html=1;aspect=fixed;strokeWidth=1;fillColor=#A9C4EB;" vertex="1" parent="1">
          <mxGeometry x="1708" y="747.8299999999999" width="30" height="30" as="geometry" />
        </mxCell>
        <mxCell id="rV2gyTp01KgFeFo_tIqa-201" value="" style="whiteSpace=wrap;html=1;aspect=fixed;strokeWidth=1;fillColor=#e1d5e7;" vertex="1" parent="1">
          <mxGeometry x="2003.88" y="603.83" width="30" height="30" as="geometry" />
        </mxCell>
        <mxCell id="rV2gyTp01KgFeFo_tIqa-202" value="" style="whiteSpace=wrap;html=1;aspect=fixed;strokeWidth=1;fillColor=#e1d5e7;" vertex="1" parent="1">
          <mxGeometry x="2003.88" y="633.8299999999999" width="30" height="30" as="geometry" />
        </mxCell>
        <mxCell id="rV2gyTp01KgFeFo_tIqa-203" value="" style="whiteSpace=wrap;html=1;aspect=fixed;strokeWidth=1;fillColor=#e1d5e7;" vertex="1" parent="1">
          <mxGeometry x="2003.88" y="662.8299999999999" width="30" height="30" as="geometry" />
        </mxCell>
        <mxCell id="rV2gyTp01KgFeFo_tIqa-204" value="" style="whiteSpace=wrap;html=1;aspect=fixed;strokeWidth=1;fillColor=#e1d5e7;" vertex="1" parent="1">
          <mxGeometry x="2003.88" y="692.8299999999999" width="30" height="30" as="geometry" />
        </mxCell>
        <mxCell id="rV2gyTp01KgFeFo_tIqa-205" style="edgeStyle=orthogonalEdgeStyle;rounded=0;orthogonalLoop=1;jettySize=auto;html=1;exitX=0.5;exitY=1;exitDx=0;exitDy=0;entryX=0.5;entryY=0;entryDx=0;entryDy=0;startArrow=blockThin;startFill=1;endArrow=none;endFill=0;strokeColor=#000000;strokeWidth=3;fillColor=#ffffff;" edge="1" parent="1" source="rV2gyTp01KgFeFo_tIqa-158" target="rV2gyTp01KgFeFo_tIqa-207">
          <mxGeometry relative="1" as="geometry" />
        </mxCell>
        <mxCell id="rV2gyTp01KgFeFo_tIqa-206" style="edgeStyle=orthogonalEdgeStyle;rounded=0;orthogonalLoop=1;jettySize=auto;html=1;exitX=1;exitY=0.5;exitDx=0;exitDy=0;startArrow=none;startFill=0;endArrow=blockThin;endFill=1;strokeColor=#000000;strokeWidth=3;fillColor=#ffffff;" edge="1" parent="1">
          <mxGeometry relative="1" as="geometry">
            <mxPoint x="1698" y="660.3333333333335" as="targetPoint" />
            <mxPoint x="1550.87" y="660.3299999999999" as="sourcePoint" />
          </mxGeometry>
        </mxCell>
        <mxCell id="rV2gyTp01KgFeFo_tIqa-207" value="" style="rounded=1;whiteSpace=wrap;html=1;fillColor=none;strokeWidth=2;dashed=1;" vertex="1" parent="1">
          <mxGeometry x="1197.99" y="884.88" width="350" height="300" as="geometry" />
        </mxCell>
        <mxCell id="rV2gyTp01KgFeFo_tIqa-208" value="&lt;font face=&quot;Times New Roman&quot; size=&quot;1&quot;&gt;&lt;b style=&quot;font-size: 24px&quot;&gt;采样策略&lt;/b&gt;&lt;/font&gt;" style="text;html=1;strokeColor=none;fillColor=none;align=center;verticalAlign=middle;whiteSpace=wrap;rounded=0;" vertex="1" parent="1">
          <mxGeometry x="1252.1" y="1133.51" width="260.89" height="20" as="geometry" />
        </mxCell>
        <mxCell id="rV2gyTp01KgFeFo_tIqa-209" value="" style="edgeStyle=none;rounded=0;orthogonalLoop=1;jettySize=auto;html=1;endArrow=none;endFill=0;fillColor=#e1d5e7;startArrow=blockThin;startFill=1;strokeWidth=2;fillOpacity=100;strokeColor=#FF9933;" edge="1" parent="1" source="rV2gyTp01KgFeFo_tIqa-210" target="rV2gyTp01KgFeFo_tIqa-217">
          <mxGeometry relative="1" as="geometry" />
        </mxCell>
        <mxCell id="rV2gyTp01KgFeFo_tIqa-210" value="" style="ellipse;whiteSpace=wrap;html=1;strokeColor=none;fillColor=#FFD966;fillOpacity=100;" vertex="1" parent="1">
          <mxGeometry x="928.8699999999999" y="651" width="20" height="20" as="geometry" />
        </mxCell>
        <mxCell id="rV2gyTp01KgFeFo_tIqa-211" value="" style="rounded=0;orthogonalLoop=1;jettySize=auto;html=1;endArrow=blockThin;endFill=1;fillColor=#e1d5e7;strokeWidth=2;startArrow=none;startFill=0;fillOpacity=100;strokeColor=#FF9933;" edge="1" parent="1" source="rV2gyTp01KgFeFo_tIqa-212" target="rV2gyTp01KgFeFo_tIqa-210">
          <mxGeometry relative="1" as="geometry" />
        </mxCell>
        <mxCell id="rV2gyTp01KgFeFo_tIqa-212" value="" style="ellipse;whiteSpace=wrap;html=1;strokeColor=none;fillOpacity=100;fillColor=#FF9933;" vertex="1" parent="1">
          <mxGeometry x="968.8699999999999" y="710" width="20" height="20" as="geometry" />
        </mxCell>
        <mxCell id="rV2gyTp01KgFeFo_tIqa-213" value="" style="edgeStyle=none;rounded=0;orthogonalLoop=1;jettySize=auto;html=1;endArrow=blockThin;endFill=1;fillColor=#e1d5e7;startArrow=none;startFill=0;strokeWidth=2;fillOpacity=100;strokeColor=#FF9933;" edge="1" parent="1" source="rV2gyTp01KgFeFo_tIqa-215" target="rV2gyTp01KgFeFo_tIqa-210">
          <mxGeometry relative="1" as="geometry" />
        </mxCell>
        <mxCell id="rV2gyTp01KgFeFo_tIqa-214" value="" style="edgeStyle=none;rounded=0;orthogonalLoop=1;jettySize=auto;html=1;endArrow=none;endFill=0;fillColor=#e1d5e7;startArrow=none;startFill=0;strokeWidth=2;fillOpacity=100;" edge="1" parent="1" source="rV2gyTp01KgFeFo_tIqa-215" target="rV2gyTp01KgFeFo_tIqa-212">
          <mxGeometry relative="1" as="geometry" />
        </mxCell>
        <mxCell id="rV2gyTp01KgFeFo_tIqa-215" value="" style="ellipse;whiteSpace=wrap;html=1;strokeColor=none;fillOpacity=100;fillColor=#FF9933;" vertex="1" parent="1">
          <mxGeometry x="1008.8699999999999" y="651" width="20" height="20" as="geometry" />
        </mxCell>
        <mxCell id="rV2gyTp01KgFeFo_tIqa-216" value="" style="edgeStyle=none;rounded=0;orthogonalLoop=1;jettySize=auto;html=1;endArrow=none;endFill=0;fillColor=#dae8fc;startArrow=none;startFill=0;strokeWidth=2;fillOpacity=100;" edge="1" parent="1" source="rV2gyTp01KgFeFo_tIqa-217" target="rV2gyTp01KgFeFo_tIqa-226">
          <mxGeometry relative="1" as="geometry" />
        </mxCell>
        <mxCell id="rV2gyTp01KgFeFo_tIqa-217" value="" style="ellipse;whiteSpace=wrap;html=1;strokeColor=none;fillOpacity=100;fillColor=#FF9933;" vertex="1" parent="1">
          <mxGeometry x="858.8699999999999" y="601" width="20" height="20" as="geometry" />
        </mxCell>
        <mxCell id="rV2gyTp01KgFeFo_tIqa-218" value="" style="edgeStyle=none;rounded=0;orthogonalLoop=1;jettySize=auto;html=1;endArrow=blockThin;endFill=1;fillColor=#e1d5e7;strokeWidth=2;fillOpacity=100;strokeColor=#FF9933;" edge="1" parent="1" source="rV2gyTp01KgFeFo_tIqa-219" target="rV2gyTp01KgFeFo_tIqa-210">
          <mxGeometry relative="1" as="geometry" />
        </mxCell>
        <mxCell id="rV2gyTp01KgFeFo_tIqa-219" value="" style="ellipse;whiteSpace=wrap;html=1;strokeColor=none;fillOpacity=100;fillColor=#FF9933;" vertex="1" parent="1">
          <mxGeometry x="868.8699999999999" y="691" width="20" height="20" as="geometry" />
        </mxCell>
        <mxCell id="rV2gyTp01KgFeFo_tIqa-220" value="" style="edgeStyle=none;rounded=0;orthogonalLoop=1;jettySize=auto;html=1;endArrow=blockThin;endFill=1;fillColor=#e1d5e7;strokeWidth=2;fillOpacity=100;strokeColor=#FF9933;" edge="1" parent="1" source="rV2gyTp01KgFeFo_tIqa-221" target="rV2gyTp01KgFeFo_tIqa-210">
          <mxGeometry relative="1" as="geometry" />
        </mxCell>
        <mxCell id="rV2gyTp01KgFeFo_tIqa-221" value="" style="ellipse;whiteSpace=wrap;html=1;strokeColor=none;fillOpacity=100;fillColor=#FF9933;" vertex="1" parent="1">
          <mxGeometry x="948.8699999999999" y="580" width="20" height="20" as="geometry" />
        </mxCell>
        <mxCell id="rV2gyTp01KgFeFo_tIqa-222" value="" style="edgeStyle=none;rounded=0;orthogonalLoop=1;jettySize=auto;html=1;endArrow=none;endFill=0;fillColor=#dae8fc;strokeWidth=2;fillOpacity=100;" edge="1" parent="1" source="rV2gyTp01KgFeFo_tIqa-223" target="rV2gyTp01KgFeFo_tIqa-217">
          <mxGeometry relative="1" as="geometry" />
        </mxCell>
        <mxCell id="rV2gyTp01KgFeFo_tIqa-223" value="" style="ellipse;whiteSpace=wrap;html=1;strokeColor=none;fillColor=#000000;direction=south;fillOpacity=100;" vertex="1" parent="1">
          <mxGeometry x="848.8699999999999" y="550" width="20" height="20" as="geometry" />
        </mxCell>
        <mxCell id="rV2gyTp01KgFeFo_tIqa-224" value="" style="edgeStyle=none;rounded=0;orthogonalLoop=1;jettySize=auto;html=1;endArrow=none;endFill=0;fillColor=#dae8fc;strokeWidth=2;fillOpacity=100;" edge="1" parent="1" source="rV2gyTp01KgFeFo_tIqa-225" target="rV2gyTp01KgFeFo_tIqa-215">
          <mxGeometry relative="1" as="geometry" />
        </mxCell>
        <mxCell id="rV2gyTp01KgFeFo_tIqa-225" value="" style="ellipse;whiteSpace=wrap;html=1;strokeColor=none;fillOpacity=100;fillColor=#000000;" vertex="1" parent="1">
          <mxGeometry x="1038.87" y="601" width="20" height="20" as="geometry" />
        </mxCell>
        <mxCell id="rV2gyTp01KgFeFo_tIqa-226" value="" style="ellipse;whiteSpace=wrap;html=1;strokeColor=none;fillColor=#000000;fillOpacity=100;" vertex="1" parent="1">
          <mxGeometry x="828.8699999999999" y="651" width="20" height="20" as="geometry" />
        </mxCell>
        <mxCell id="rV2gyTp01KgFeFo_tIqa-227" value="" style="ellipse;whiteSpace=wrap;html=1;strokeColor=none;fillColor=#000000;fillOpacity=100;" vertex="1" parent="1">
          <mxGeometry x="1058.87" y="710" width="20" height="21" as="geometry" />
        </mxCell>
        <mxCell id="rV2gyTp01KgFeFo_tIqa-228" value="" style="endArrow=none;html=1;strokeWidth=2;exitX=1;exitY=1;exitDx=0;exitDy=0;entryX=0;entryY=0;entryDx=0;entryDy=0;endFill=0;startArrow=none;startFill=0;fillOpacity=100;" edge="1" parent="1" source="rV2gyTp01KgFeFo_tIqa-215" target="rV2gyTp01KgFeFo_tIqa-227">
          <mxGeometry width="50" height="50" relative="1" as="geometry">
            <mxPoint x="1028.87" y="700" as="sourcePoint" />
            <mxPoint x="1063.87" y="744" as="targetPoint" />
          </mxGeometry>
        </mxCell>
        <mxCell id="rV2gyTp01KgFeFo_tIqa-229" value="" style="ellipse;whiteSpace=wrap;html=1;strokeColor=none;fillOpacity=100;fillColor=#000000;" vertex="1" parent="1">
          <mxGeometry x="1078.87" y="550" width="20" height="20" as="geometry" />
        </mxCell>
        <mxCell id="rV2gyTp01KgFeFo_tIqa-230" value="" style="endArrow=none;startArrow=none;html=1;strokeWidth=2;exitX=1;exitY=0;exitDx=0;exitDy=0;entryX=0;entryY=1;entryDx=0;entryDy=0;startFill=0;endFill=0;fillOpacity=100;" edge="1" parent="1" source="rV2gyTp01KgFeFo_tIqa-225" target="rV2gyTp01KgFeFo_tIqa-229">
          <mxGeometry width="50" height="50" relative="1" as="geometry">
            <mxPoint x="1068.87" y="621" as="sourcePoint" />
            <mxPoint x="1118.87" y="571" as="targetPoint" />
          </mxGeometry>
        </mxCell>
        <mxCell id="rV2gyTp01KgFeFo_tIqa-231" value="" style="edgeStyle=none;rounded=0;orthogonalLoop=1;jettySize=auto;html=1;endArrow=none;endFill=0;fillColor=#e1d5e7;startArrow=blockThin;startFill=1;strokeWidth=2;fillOpacity=100;strokeColor=#0066CC;" edge="1" parent="1" source="rV2gyTp01KgFeFo_tIqa-232" target="rV2gyTp01KgFeFo_tIqa-239">
          <mxGeometry relative="1" as="geometry" />
        </mxCell>
        <mxCell id="rV2gyTp01KgFeFo_tIqa-232" value="" style="ellipse;whiteSpace=wrap;html=1;strokeColor=none;fillColor=#FFD966;fillOpacity=100;" vertex="1" parent="1">
          <mxGeometry x="1342.9899999999998" y="647.8299999999999" width="20" height="20" as="geometry" />
        </mxCell>
        <mxCell id="rV2gyTp01KgFeFo_tIqa-233" value="" style="rounded=0;orthogonalLoop=1;jettySize=auto;html=1;endArrow=blockThin;endFill=1;fillColor=#e1d5e7;strokeWidth=2;fillOpacity=100;strokeColor=#0066CC;" edge="1" parent="1" source="rV2gyTp01KgFeFo_tIqa-234" target="rV2gyTp01KgFeFo_tIqa-232">
          <mxGeometry relative="1" as="geometry" />
        </mxCell>
        <mxCell id="rV2gyTp01KgFeFo_tIqa-234" value="" style="ellipse;whiteSpace=wrap;html=1;strokeColor=none;fillColor=#0066CC;fillOpacity=100;" vertex="1" parent="1">
          <mxGeometry x="1382.9899999999998" y="706.8299999999999" width="20" height="20" as="geometry" />
        </mxCell>
        <mxCell id="rV2gyTp01KgFeFo_tIqa-235" value="" style="edgeStyle=none;rounded=0;orthogonalLoop=1;jettySize=auto;html=1;endArrow=blockThin;endFill=1;fillColor=#e1d5e7;startArrow=none;startFill=0;strokeWidth=2;fillOpacity=100;strokeColor=#0066CC;" edge="1" parent="1" source="rV2gyTp01KgFeFo_tIqa-237" target="rV2gyTp01KgFeFo_tIqa-232">
          <mxGeometry relative="1" as="geometry" />
        </mxCell>
        <mxCell id="rV2gyTp01KgFeFo_tIqa-236" value="" style="edgeStyle=none;rounded=0;orthogonalLoop=1;jettySize=auto;html=1;endArrow=none;endFill=0;fillColor=#e1d5e7;startArrow=none;startFill=0;strokeWidth=2;fillOpacity=100;" edge="1" parent="1" source="rV2gyTp01KgFeFo_tIqa-237" target="rV2gyTp01KgFeFo_tIqa-234">
          <mxGeometry relative="1" as="geometry" />
        </mxCell>
        <mxCell id="rV2gyTp01KgFeFo_tIqa-237" value="" style="ellipse;whiteSpace=wrap;html=1;strokeColor=none;fillColor=#0066CC;fillOpacity=100;" vertex="1" parent="1">
          <mxGeometry x="1422.9899999999998" y="647.8299999999999" width="20" height="20" as="geometry" />
        </mxCell>
        <mxCell id="rV2gyTp01KgFeFo_tIqa-238" value="" style="edgeStyle=none;rounded=0;orthogonalLoop=1;jettySize=auto;html=1;endArrow=none;endFill=0;fillColor=#dae8fc;startArrow=none;startFill=0;strokeWidth=2;fillOpacity=100;" edge="1" parent="1" source="rV2gyTp01KgFeFo_tIqa-239" target="rV2gyTp01KgFeFo_tIqa-248">
          <mxGeometry relative="1" as="geometry" />
        </mxCell>
        <mxCell id="rV2gyTp01KgFeFo_tIqa-239" value="" style="ellipse;whiteSpace=wrap;html=1;strokeColor=none;fillColor=#0066CC;fillOpacity=100;" vertex="1" parent="1">
          <mxGeometry x="1272.9899999999998" y="597.83" width="20" height="20" as="geometry" />
        </mxCell>
        <mxCell id="rV2gyTp01KgFeFo_tIqa-240" value="" style="edgeStyle=none;rounded=0;orthogonalLoop=1;jettySize=auto;html=1;endArrow=none;endFill=0;fillColor=#e1d5e7;strokeWidth=2;fillOpacity=100;" edge="1" parent="1" source="rV2gyTp01KgFeFo_tIqa-241" target="rV2gyTp01KgFeFo_tIqa-232">
          <mxGeometry relative="1" as="geometry" />
        </mxCell>
        <mxCell id="rV2gyTp01KgFeFo_tIqa-241" value="" style="ellipse;whiteSpace=wrap;html=1;strokeColor=none;fillColor=#000000;fillOpacity=100;" vertex="1" parent="1">
          <mxGeometry x="1282.9899999999998" y="687.8299999999999" width="20" height="20" as="geometry" />
        </mxCell>
        <mxCell id="rV2gyTp01KgFeFo_tIqa-242" value="" style="edgeStyle=none;rounded=0;orthogonalLoop=1;jettySize=auto;html=1;endArrow=none;endFill=0;fillColor=#e1d5e7;strokeWidth=2;fillOpacity=100;" edge="1" parent="1" source="rV2gyTp01KgFeFo_tIqa-243" target="rV2gyTp01KgFeFo_tIqa-232">
          <mxGeometry relative="1" as="geometry" />
        </mxCell>
        <mxCell id="rV2gyTp01KgFeFo_tIqa-243" value="" style="ellipse;whiteSpace=wrap;html=1;strokeColor=none;fillColor=#000000;fillOpacity=100;" vertex="1" parent="1">
          <mxGeometry x="1362.9899999999998" y="576.83" width="20" height="20" as="geometry" />
        </mxCell>
        <mxCell id="rV2gyTp01KgFeFo_tIqa-244" value="" style="edgeStyle=none;rounded=0;orthogonalLoop=1;jettySize=auto;html=1;endArrow=none;endFill=0;fillColor=#dae8fc;strokeWidth=2;fillOpacity=100;" edge="1" parent="1" source="rV2gyTp01KgFeFo_tIqa-245" target="rV2gyTp01KgFeFo_tIqa-239">
          <mxGeometry relative="1" as="geometry" />
        </mxCell>
        <mxCell id="rV2gyTp01KgFeFo_tIqa-245" value="" style="ellipse;whiteSpace=wrap;html=1;strokeColor=none;fillColor=#000000;direction=south;fillOpacity=100;" vertex="1" parent="1">
          <mxGeometry x="1262.9899999999998" y="546.83" width="20" height="20" as="geometry" />
        </mxCell>
        <mxCell id="rV2gyTp01KgFeFo_tIqa-246" value="" style="edgeStyle=none;rounded=0;orthogonalLoop=1;jettySize=auto;html=1;endArrow=none;endFill=0;fillColor=#dae8fc;strokeWidth=2;fillOpacity=100;" edge="1" parent="1" source="rV2gyTp01KgFeFo_tIqa-247" target="rV2gyTp01KgFeFo_tIqa-237">
          <mxGeometry relative="1" as="geometry" />
        </mxCell>
        <mxCell id="rV2gyTp01KgFeFo_tIqa-247" value="" style="ellipse;whiteSpace=wrap;html=1;strokeColor=none;fillColor=#0066CC;fillOpacity=100;" vertex="1" parent="1">
          <mxGeometry x="1452.9899999999998" y="597.83" width="20" height="20" as="geometry" />
        </mxCell>
        <mxCell id="rV2gyTp01KgFeFo_tIqa-248" value="" style="ellipse;whiteSpace=wrap;html=1;strokeColor=none;fillColor=#000000;fillOpacity=100;" vertex="1" parent="1">
          <mxGeometry x="1242.9899999999998" y="647.8299999999999" width="20" height="20" as="geometry" />
        </mxCell>
        <mxCell id="rV2gyTp01KgFeFo_tIqa-249" value="" style="ellipse;whiteSpace=wrap;html=1;strokeColor=none;fillColor=#000000;fillOpacity=100;" vertex="1" parent="1">
          <mxGeometry x="1472.9899999999998" y="706.8299999999999" width="20" height="21" as="geometry" />
        </mxCell>
        <mxCell id="rV2gyTp01KgFeFo_tIqa-250" value="" style="endArrow=none;html=1;strokeWidth=2;exitX=1;exitY=1;exitDx=0;exitDy=0;entryX=0;entryY=0;entryDx=0;entryDy=0;endFill=0;startArrow=none;startFill=0;fillOpacity=100;" edge="1" parent="1" source="rV2gyTp01KgFeFo_tIqa-237" target="rV2gyTp01KgFeFo_tIqa-249">
          <mxGeometry width="50" height="50" relative="1" as="geometry">
            <mxPoint x="1442.9899999999998" y="696.8299999999999" as="sourcePoint" />
            <mxPoint x="1477.9899999999998" y="740.8299999999999" as="targetPoint" />
          </mxGeometry>
        </mxCell>
        <mxCell id="rV2gyTp01KgFeFo_tIqa-251" value="" style="ellipse;whiteSpace=wrap;html=1;strokeColor=none;fillColor=#0066CC;fillOpacity=100;" vertex="1" parent="1">
          <mxGeometry x="1492.9899999999998" y="546.83" width="20" height="20" as="geometry" />
        </mxCell>
        <mxCell id="rV2gyTp01KgFeFo_tIqa-252" value="" style="endArrow=none;startArrow=none;html=1;strokeWidth=2;exitX=1;exitY=0;exitDx=0;exitDy=0;entryX=0;entryY=1;entryDx=0;entryDy=0;startFill=0;endFill=0;fillOpacity=100;" edge="1" parent="1" source="rV2gyTp01KgFeFo_tIqa-247" target="rV2gyTp01KgFeFo_tIqa-251">
          <mxGeometry width="50" height="50" relative="1" as="geometry">
            <mxPoint x="1482.9899999999998" y="617.8299999999999" as="sourcePoint" />
            <mxPoint x="1532.9899999999998" y="567.83" as="targetPoint" />
          </mxGeometry>
        </mxCell>
        <mxCell id="rV2gyTp01KgFeFo_tIqa-253" value="" style="endArrow=blockThin;html=1;strokeWidth=2;exitX=0;exitY=0.5;exitDx=0;exitDy=0;endFill=1;dashed=1;fillOpacity=100;strokeColor=#0066CC;" edge="1" parent="1" source="rV2gyTp01KgFeFo_tIqa-247">
          <mxGeometry width="50" height="50" relative="1" as="geometry">
            <mxPoint x="1252.9899999999998" y="736.8299999999999" as="sourcePoint" />
            <mxPoint x="1362.9899999999998" y="646.8300000000002" as="targetPoint" />
          </mxGeometry>
        </mxCell>
        <mxCell id="rV2gyTp01KgFeFo_tIqa-254" value="" style="endArrow=blockThin;html=1;strokeWidth=2;exitX=0;exitY=0.5;exitDx=0;exitDy=0;endFill=1;dashed=1;entryX=1;entryY=0;entryDx=0;entryDy=0;fillOpacity=100;strokeColor=#0066CC;" edge="1" parent="1" source="rV2gyTp01KgFeFo_tIqa-251" target="rV2gyTp01KgFeFo_tIqa-232">
          <mxGeometry width="50" height="50" relative="1" as="geometry">
            <mxPoint x="1462.9899999999998" y="617.8299999999999" as="sourcePoint" />
            <mxPoint x="1372.9899999999998" y="656.8299999999999" as="targetPoint" />
          </mxGeometry>
        </mxCell>
        <mxCell id="rV2gyTp01KgFeFo_tIqa-255" value="" style="edgeStyle=none;rounded=0;orthogonalLoop=1;jettySize=auto;html=1;endArrow=none;endFill=0;fillColor=#e1d5e7;startArrow=none;startFill=0;strokeWidth=2;" edge="1" parent="1" source="rV2gyTp01KgFeFo_tIqa-256" target="rV2gyTp01KgFeFo_tIqa-263">
          <mxGeometry relative="1" as="geometry" />
        </mxCell>
        <mxCell id="rV2gyTp01KgFeFo_tIqa-256" value="&lt;font style=&quot;font-size: 15px&quot;&gt;0&lt;/font&gt;" style="ellipse;whiteSpace=wrap;html=1;strokeColor=none;fillColor=#FFD966;" vertex="1" parent="1">
          <mxGeometry x="1345.86" y="1017.7600000000001" width="20" height="20" as="geometry" />
        </mxCell>
        <mxCell id="rV2gyTp01KgFeFo_tIqa-257" value="" style="rounded=0;orthogonalLoop=1;jettySize=auto;html=1;endArrow=none;endFill=0;fillColor=#e1d5e7;strokeWidth=2;" edge="1" parent="1" source="rV2gyTp01KgFeFo_tIqa-258" target="rV2gyTp01KgFeFo_tIqa-256">
          <mxGeometry relative="1" as="geometry" />
        </mxCell>
        <mxCell id="rV2gyTp01KgFeFo_tIqa-258" value="&lt;font color=&quot;#ffffff&quot; style=&quot;font-size: 15px&quot;&gt;2&lt;/font&gt;" style="ellipse;whiteSpace=wrap;html=1;strokeColor=none;fillColor=#0066CC;" vertex="1" parent="1">
          <mxGeometry x="1385.86" y="1076.7600000000002" width="20" height="20" as="geometry" />
        </mxCell>
        <mxCell id="rV2gyTp01KgFeFo_tIqa-259" value="" style="edgeStyle=none;rounded=0;orthogonalLoop=1;jettySize=auto;html=1;endArrow=none;endFill=0;fillColor=#e1d5e7;startArrow=none;startFill=0;strokeWidth=2;" edge="1" parent="1" source="rV2gyTp01KgFeFo_tIqa-261" target="rV2gyTp01KgFeFo_tIqa-256">
          <mxGeometry relative="1" as="geometry" />
        </mxCell>
        <mxCell id="rV2gyTp01KgFeFo_tIqa-260" value="" style="edgeStyle=none;rounded=0;orthogonalLoop=1;jettySize=auto;html=1;endArrow=none;endFill=0;fillColor=#e1d5e7;startArrow=none;startFill=0;strokeWidth=2;" edge="1" parent="1" source="rV2gyTp01KgFeFo_tIqa-261" target="rV2gyTp01KgFeFo_tIqa-258">
          <mxGeometry relative="1" as="geometry" />
        </mxCell>
        <mxCell id="rV2gyTp01KgFeFo_tIqa-261" value="&lt;font style=&quot;font-size: 15px&quot; color=&quot;#ffffff&quot;&gt;1&lt;/font&gt;" style="ellipse;whiteSpace=wrap;html=1;strokeColor=none;fillColor=#0066CC;" vertex="1" parent="1">
          <mxGeometry x="1425.86" y="1017.7600000000001" width="20" height="20" as="geometry" />
        </mxCell>
        <mxCell id="rV2gyTp01KgFeFo_tIqa-262" value="" style="edgeStyle=none;rounded=0;orthogonalLoop=1;jettySize=auto;html=1;endArrow=none;endFill=0;fillColor=#dae8fc;startArrow=none;startFill=0;strokeWidth=2;" edge="1" parent="1" source="rV2gyTp01KgFeFo_tIqa-263" target="rV2gyTp01KgFeFo_tIqa-272">
          <mxGeometry relative="1" as="geometry" />
        </mxCell>
        <mxCell id="rV2gyTp01KgFeFo_tIqa-263" value="&lt;font style=&quot;font-size: 15px&quot; color=&quot;#ffffff&quot;&gt;3&lt;/font&gt;" style="ellipse;whiteSpace=wrap;html=1;strokeColor=none;fillColor=#0066CC;" vertex="1" parent="1">
          <mxGeometry x="1275.86" y="967.7600000000001" width="20" height="20" as="geometry" />
        </mxCell>
        <mxCell id="rV2gyTp01KgFeFo_tIqa-264" value="" style="edgeStyle=none;rounded=0;orthogonalLoop=1;jettySize=auto;html=1;endArrow=none;endFill=0;fillColor=#e1d5e7;strokeWidth=2;" edge="1" parent="1" source="rV2gyTp01KgFeFo_tIqa-265" target="rV2gyTp01KgFeFo_tIqa-256">
          <mxGeometry relative="1" as="geometry" />
        </mxCell>
        <mxCell id="rV2gyTp01KgFeFo_tIqa-265" value="" style="ellipse;whiteSpace=wrap;html=1;strokeColor=none;fillColor=#000000;" vertex="1" parent="1">
          <mxGeometry x="1285.86" y="1057.7600000000002" width="20" height="20" as="geometry" />
        </mxCell>
        <mxCell id="rV2gyTp01KgFeFo_tIqa-266" value="" style="edgeStyle=none;rounded=0;orthogonalLoop=1;jettySize=auto;html=1;endArrow=none;endFill=0;fillColor=#e1d5e7;strokeWidth=2;" edge="1" parent="1" source="rV2gyTp01KgFeFo_tIqa-267" target="rV2gyTp01KgFeFo_tIqa-256">
          <mxGeometry relative="1" as="geometry" />
        </mxCell>
        <mxCell id="rV2gyTp01KgFeFo_tIqa-267" value="" style="ellipse;whiteSpace=wrap;html=1;strokeColor=none;fillColor=#000000;" vertex="1" parent="1">
          <mxGeometry x="1365.86" y="950.5100000000001" width="20" height="20" as="geometry" />
        </mxCell>
        <mxCell id="rV2gyTp01KgFeFo_tIqa-268" value="" style="edgeStyle=none;rounded=0;orthogonalLoop=1;jettySize=auto;html=1;endArrow=none;endFill=0;fillColor=#dae8fc;strokeWidth=2;" edge="1" parent="1" source="rV2gyTp01KgFeFo_tIqa-269" target="rV2gyTp01KgFeFo_tIqa-263">
          <mxGeometry relative="1" as="geometry" />
        </mxCell>
        <mxCell id="rV2gyTp01KgFeFo_tIqa-269" value="" style="ellipse;whiteSpace=wrap;html=1;strokeColor=none;fillColor=#000000;direction=south;" vertex="1" parent="1">
          <mxGeometry x="1265.86" y="916.76" width="20" height="20" as="geometry" />
        </mxCell>
        <mxCell id="rV2gyTp01KgFeFo_tIqa-270" value="" style="edgeStyle=none;rounded=0;orthogonalLoop=1;jettySize=auto;html=1;endArrow=none;endFill=0;fillColor=#dae8fc;strokeWidth=2;" edge="1" parent="1" source="rV2gyTp01KgFeFo_tIqa-271" target="rV2gyTp01KgFeFo_tIqa-261">
          <mxGeometry relative="1" as="geometry" />
        </mxCell>
        <mxCell id="rV2gyTp01KgFeFo_tIqa-271" value="&lt;font style=&quot;font-size: 15px&quot; color=&quot;#ffffff&quot;&gt;4&lt;/font&gt;" style="ellipse;whiteSpace=wrap;html=1;strokeColor=none;fillColor=#0066CC;" vertex="1" parent="1">
          <mxGeometry x="1455.86" y="967.7600000000001" width="20" height="20" as="geometry" />
        </mxCell>
        <mxCell id="rV2gyTp01KgFeFo_tIqa-272" value="" style="ellipse;whiteSpace=wrap;html=1;strokeColor=none;fillColor=#000000;" vertex="1" parent="1">
          <mxGeometry x="1245.86" y="1017.7600000000001" width="20" height="20" as="geometry" />
        </mxCell>
        <mxCell id="rV2gyTp01KgFeFo_tIqa-273" value="" style="ellipse;whiteSpace=wrap;html=1;strokeColor=none;fillColor=#000000;" vertex="1" parent="1">
          <mxGeometry x="1475.86" y="1076.7600000000002" width="20" height="21" as="geometry" />
        </mxCell>
        <mxCell id="rV2gyTp01KgFeFo_tIqa-274" value="" style="endArrow=none;html=1;strokeWidth=2;exitX=1;exitY=1;exitDx=0;exitDy=0;entryX=0;entryY=0;entryDx=0;entryDy=0;endFill=0;startArrow=none;startFill=0;" edge="1" parent="1" source="rV2gyTp01KgFeFo_tIqa-261" target="rV2gyTp01KgFeFo_tIqa-273">
          <mxGeometry width="50" height="50" relative="1" as="geometry">
            <mxPoint x="1445.86" y="1066.7600000000002" as="sourcePoint" />
            <mxPoint x="1480.86" y="1110.7600000000002" as="targetPoint" />
          </mxGeometry>
        </mxCell>
        <mxCell id="rV2gyTp01KgFeFo_tIqa-275" value="&lt;font style=&quot;font-size: 15px&quot; color=&quot;#ffffff&quot;&gt;5&lt;/font&gt;" style="ellipse;whiteSpace=wrap;html=1;strokeColor=none;fillColor=#0066CC;" vertex="1" parent="1">
          <mxGeometry x="1495.86" y="916.76" width="20" height="20" as="geometry" />
        </mxCell>
        <mxCell id="rV2gyTp01KgFeFo_tIqa-276" value="" style="endArrow=none;startArrow=none;html=1;strokeWidth=2;exitX=1;exitY=0;exitDx=0;exitDy=0;entryX=0;entryY=1;entryDx=0;entryDy=0;startFill=0;endFill=0;" edge="1" parent="1" source="rV2gyTp01KgFeFo_tIqa-271" target="rV2gyTp01KgFeFo_tIqa-275">
          <mxGeometry width="50" height="50" relative="1" as="geometry">
            <mxPoint x="1485.86" y="987.7600000000001" as="sourcePoint" />
            <mxPoint x="1535.86" y="937.76" as="targetPoint" />
          </mxGeometry>
        </mxCell>
        <mxCell id="rV2gyTp01KgFeFo_tIqa-277" value="&lt;font size=&quot;1&quot;&gt;&lt;b style=&quot;font-size: 24px&quot;&gt;输出标签&lt;/b&gt;&lt;/font&gt;" style="text;html=1;strokeColor=none;fillColor=none;align=center;verticalAlign=middle;whiteSpace=wrap;rounded=0;" vertex="1" parent="1">
          <mxGeometry x="1940" y="737.8299999999999" width="157.75" height="20" as="geometry" />
        </mxCell>
        <mxCell id="rV2gyTp01KgFeFo_tIqa-278" value="" style="whiteSpace=wrap;html=1;aspect=fixed;strokeWidth=1;fillColor=#E6E6E6;" vertex="1" parent="1">
          <mxGeometry x="515.75" y="630.5" width="20" height="20" as="geometry" />
        </mxCell>
        <mxCell id="rV2gyTp01KgFeFo_tIqa-279" value="" style="whiteSpace=wrap;html=1;aspect=fixed;strokeWidth=1;fillColor=#f5f5f5;fontColor=#333333;" vertex="1" parent="1">
          <mxGeometry x="535.75" y="630.5" width="20" height="20" as="geometry" />
        </mxCell>
        <mxCell id="rV2gyTp01KgFeFo_tIqa-280" value="" style="whiteSpace=wrap;html=1;aspect=fixed;strokeWidth=1;fillColor=#E6E6E6;" vertex="1" parent="1">
          <mxGeometry x="555.75" y="630.5" width="20" height="20" as="geometry" />
        </mxCell>
        <mxCell id="rV2gyTp01KgFeFo_tIqa-281" value="" style="whiteSpace=wrap;html=1;aspect=fixed;strokeWidth=1;fillColor=#F5F5F5;" vertex="1" parent="1">
          <mxGeometry x="575.75" y="630.5" width="20" height="20" as="geometry" />
        </mxCell>
        <mxCell id="rV2gyTp01KgFeFo_tIqa-282" value="" style="whiteSpace=wrap;html=1;aspect=fixed;strokeWidth=1;fillColor=#FF9933;" vertex="1" parent="1">
          <mxGeometry x="945.1199999999999" y="628" width="20" height="20" as="geometry" />
        </mxCell>
        <mxCell id="rV2gyTp01KgFeFo_tIqa-283" value="" style="whiteSpace=wrap;html=1;aspect=fixed;strokeWidth=1;fillColor=#FFD966;" vertex="1" parent="1">
          <mxGeometry x="965.1199999999999" y="628" width="20" height="20" as="geometry" />
        </mxCell>
        <mxCell id="rV2gyTp01KgFeFo_tIqa-284" value="" style="whiteSpace=wrap;html=1;aspect=fixed;strokeWidth=1;fillColor=#FF9933;" vertex="1" parent="1">
          <mxGeometry x="985.1199999999999" y="628" width="20" height="20" as="geometry" />
        </mxCell>
        <mxCell id="rV2gyTp01KgFeFo_tIqa-285" value="" style="whiteSpace=wrap;html=1;aspect=fixed;strokeWidth=1;fillColor=#FFD966;" vertex="1" parent="1">
          <mxGeometry x="1005.1199999999999" y="628" width="20" height="20" as="geometry" />
        </mxCell>
        <mxCell id="rV2gyTp01KgFeFo_tIqa-286" value="" style="whiteSpace=wrap;html=1;aspect=fixed;strokeWidth=1;fillColor=#0066CC;" vertex="1" parent="1">
          <mxGeometry x="1374.9899999999998" y="631.8299999999999" width="20" height="20" as="geometry" />
        </mxCell>
        <mxCell id="rV2gyTp01KgFeFo_tIqa-287" value="" style="whiteSpace=wrap;html=1;aspect=fixed;strokeWidth=1;fillColor=#66B2FF;" vertex="1" parent="1">
          <mxGeometry x="1394.7399999999998" y="631.8299999999999" width="20" height="20" as="geometry" />
        </mxCell>
        <mxCell id="rV2gyTp01KgFeFo_tIqa-288" value="" style="whiteSpace=wrap;html=1;aspect=fixed;strokeWidth=1;fillColor=#0066CC;" vertex="1" parent="1">
          <mxGeometry x="1414.7399999999998" y="631.8299999999999" width="20" height="20" as="geometry" />
        </mxCell>
        <mxCell id="rV2gyTp01KgFeFo_tIqa-289" value="" style="whiteSpace=wrap;html=1;aspect=fixed;strokeWidth=1;fillColor=#66B2FF;" vertex="1" parent="1">
          <mxGeometry x="1434.7399999999998" y="631.8299999999999" width="20" height="20" as="geometry" />
        </mxCell>
        <mxCell id="rV2gyTp01KgFeFo_tIqa-290" style="edgeStyle=orthogonalEdgeStyle;rounded=0;orthogonalLoop=1;jettySize=auto;html=1;exitX=0.5;exitY=1;exitDx=0;exitDy=0;dashed=1;startArrow=blockThin;startFill=1;endArrow=blockThin;endFill=1;strokeColor=#000000;strokeWidth=3;" edge="1" parent="1" source="rV2gyTp01KgFeFo_tIqa-158" target="rV2gyTp01KgFeFo_tIqa-158">
          <mxGeometry relative="1" as="geometry" />
        </mxCell>
        <mxCell id="rV2gyTp01KgFeFo_tIqa-291" value="" style="endArrow=blockThin;html=1;strokeColor=#000000;strokeWidth=3;exitX=1;exitY=0;exitDx=0;exitDy=0;endFill=1;" edge="1" parent="1">
          <mxGeometry width="50" height="50" relative="1" as="geometry">
            <mxPoint x="1738" y="659.8299999999999" as="sourcePoint" />
            <mxPoint x="1810" y="660" as="targetPoint" />
          </mxGeometry>
        </mxCell>
        <mxCell id="rV2gyTp01KgFeFo_tIqa-292" value="&lt;font face=&quot;Times New Roman&quot; size=&quot;1&quot;&gt;&lt;b style=&quot;font-size: 30px&quot;&gt;LogSoftmax&lt;/b&gt;&lt;/font&gt;" style="text;html=1;strokeColor=none;fillColor=none;align=center;verticalAlign=middle;whiteSpace=wrap;rounded=0;" vertex="1" parent="1">
          <mxGeometry x="1953.88" y="510.00000000000006" width="90" height="20" as="geometry" />
        </mxCell>
        <mxCell id="rV2gyTp01KgFeFo_tIqa-293" value="&lt;font face=&quot;Times New Roman&quot; style=&quot;font-size: 30px&quot;&gt;$$S(v)$$&lt;/font&gt;" style="text;html=1;strokeColor=none;fillColor=none;align=center;verticalAlign=middle;whiteSpace=wrap;rounded=0;" vertex="1" parent="1">
          <mxGeometry x="1294.99" y="840.0000000000001" width="227.5" height="20" as="geometry" />
        </mxCell>
        <mxCell id="rV2gyTp01KgFeFo_tIqa-294" value="&lt;font face=&quot;Times New Roman&quot; style=&quot;font-size: 30px&quot;&gt;&lt;b&gt;$$N(v)$$&lt;/b&gt;&lt;/font&gt;" style="text;html=1;strokeColor=none;fillColor=none;align=center;verticalAlign=middle;whiteSpace=wrap;rounded=0;" vertex="1" parent="1">
          <mxGeometry x="641" y="697.8300000000002" width="227.5" height="20" as="geometry" />
        </mxCell>
        <mxCell id="rV2gyTp01KgFeFo_tIqa-295" value="&lt;font face=&quot;Times New Roman&quot; style=&quot;font-size: 30px&quot;&gt;&lt;b&gt;$$H_v^0$$&lt;/b&gt;&lt;/font&gt;" style="text;html=1;strokeColor=none;fillColor=none;align=center;verticalAlign=middle;whiteSpace=wrap;rounded=0;" vertex="1" parent="1">
          <mxGeometry x="591.75" y="548.83" width="335" height="20" as="geometry" />
        </mxCell>
        <mxCell id="rV2gyTp01KgFeFo_tIqa-296" value="&lt;font face=&quot;Times New Roman&quot; style=&quot;font-size: 30px&quot;&gt;$$g_v^1$$&lt;/font&gt;" style="text;html=1;strokeColor=none;fillColor=none;align=center;verticalAlign=middle;whiteSpace=wrap;rounded=0;" vertex="1" parent="1">
          <mxGeometry x="1505.9499999999998" y="448" width="48.26" height="24" as="geometry" />
        </mxCell>
        <mxCell id="rV2gyTp01KgFeFo_tIqa-297" value="&lt;font face=&quot;Times New Roman&quot; style=&quot;font-size: 30px&quot;&gt;$$r_v^2$$&lt;/font&gt;" style="text;html=1;strokeColor=none;fillColor=none;align=center;verticalAlign=middle;whiteSpace=wrap;rounded=0;" vertex="1" parent="1">
          <mxGeometry x="1605.8700000000001" y="621.5" width="48.26" height="20" as="geometry" />
        </mxCell>
        <mxCell id="rV2gyTp01KgFeFo_tIqa-298" value="" style="ellipse;whiteSpace=wrap;html=1;strokeColor=none;fillColor=#FFD966;" vertex="1" parent="1">
          <mxGeometry x="1690" y="967.76" width="20" height="20" as="geometry" />
        </mxCell>
        <mxCell id="rV2gyTp01KgFeFo_tIqa-299" value="&lt;font size=&quot;1&quot;&gt;&lt;span style=&quot;font-size: 24px&quot;&gt;目标节点&lt;/span&gt;&lt;/font&gt;" style="text;html=1;strokeColor=none;fillColor=none;align=center;verticalAlign=middle;whiteSpace=wrap;rounded=0;fontFamily=Helvetica;fontStyle=1" vertex="1" parent="1">
          <mxGeometry x="1692.13" y="970.51" width="164" height="20" as="geometry" />
        </mxCell>
        <mxCell id="rV2gyTp01KgFeFo_tIqa-300" value="" style="ellipse;whiteSpace=wrap;html=1;strokeColor=none;fillColor=#FF9933;" vertex="1" parent="1">
          <mxGeometry x="1690" y="998.76" width="20" height="20" as="geometry" />
        </mxCell>
        <mxCell id="rV2gyTp01KgFeFo_tIqa-301" value="&lt;font size=&quot;1&quot;&gt;&lt;span style=&quot;font-size: 24px&quot;&gt;邻居节点&lt;/span&gt;&lt;/font&gt;" style="text;html=1;strokeColor=none;fillColor=none;align=center;verticalAlign=middle;whiteSpace=wrap;rounded=0;fontFamily=Helvetica;fontStyle=1" vertex="1" parent="1">
          <mxGeometry x="1673" y="998.76" width="203" height="20" as="geometry" />
        </mxCell>
        <mxCell id="rV2gyTp01KgFeFo_tIqa-302" value="" style="ellipse;whiteSpace=wrap;html=1;strokeColor=none;fillColor=#000000;" vertex="1" parent="1">
          <mxGeometry x="1690" y="1057.26" width="20" height="21" as="geometry" />
        </mxCell>
        <mxCell id="rV2gyTp01KgFeFo_tIqa-303" value="&lt;font size=&quot;1&quot;&gt;&lt;span style=&quot;font-size: 24px&quot;&gt;其他节点&lt;/span&gt;&lt;/font&gt;" style="text;html=1;strokeColor=none;fillColor=none;align=center;verticalAlign=middle;whiteSpace=wrap;rounded=0;fontFamily=Helvetica;fontStyle=1" vertex="1" parent="1">
          <mxGeometry x="1697.63" y="1057.76" width="153" height="20" as="geometry" />
        </mxCell>
        <mxCell id="rV2gyTp01KgFeFo_tIqa-304" value="" style="edgeStyle=none;rounded=0;orthogonalLoop=1;jettySize=auto;html=1;endArrow=blockThin;endFill=1;fillColor=#e1d5e7;startArrow=none;startFill=0;strokeWidth=2;fillOpacity=100;strokeColor=#0066CC;" edge="1" parent="1">
          <mxGeometry relative="1" as="geometry">
            <mxPoint x="1751" y="1126.9300000000003" as="sourcePoint" />
            <mxPoint x="1691" y="1126.9300000000003" as="targetPoint" />
          </mxGeometry>
        </mxCell>
        <mxCell id="rV2gyTp01KgFeFo_tIqa-305" value="" style="edgeStyle=none;rounded=0;orthogonalLoop=1;jettySize=auto;html=1;endArrow=blockThin;endFill=1;fillColor=#e1d5e7;startArrow=none;startFill=0;strokeWidth=2;fillOpacity=100;strokeColor=#FF9933;" edge="1" parent="1">
          <mxGeometry relative="1" as="geometry">
            <mxPoint x="1750" y="1099.7600000000002" as="sourcePoint" />
            <mxPoint x="1690" y="1099.7600000000002" as="targetPoint" />
          </mxGeometry>
        </mxCell>
        <mxCell id="rV2gyTp01KgFeFo_tIqa-306" value="&lt;font size=&quot;1&quot;&gt;&lt;span style=&quot;font-size: 24px&quot;&gt;细粒度聚合器&lt;/span&gt;&lt;/font&gt;" style="text;html=1;strokeColor=none;fillColor=none;align=center;verticalAlign=middle;whiteSpace=wrap;rounded=0;fontFamily=Helvetica;fontStyle=1" vertex="1" parent="1">
          <mxGeometry x="1667.13" y="1087.76" width="329" height="20" as="geometry" />
        </mxCell>
        <mxCell id="rV2gyTp01KgFeFo_tIqa-307" value="&lt;font size=&quot;1&quot;&gt;&lt;span style=&quot;font-size: 24px;&quot;&gt;粗粒度聚合器&lt;/span&gt;&lt;/font&gt;" style="text;html=1;strokeColor=none;fillColor=none;align=center;verticalAlign=middle;whiteSpace=wrap;rounded=0;fontFamily=Helvetica;fontStyle=1" vertex="1" parent="1">
          <mxGeometry x="1646.13" y="1113.51" width="371" height="20" as="geometry" />
        </mxCell>
        <mxCell id="rV2gyTp01KgFeFo_tIqa-308" value="" style="ellipse;whiteSpace=wrap;html=1;strokeColor=none;fillColor=#0066CC;" vertex="1" parent="1">
          <mxGeometry x="1690" y="1028.26" width="20" height="20" as="geometry" />
        </mxCell>
        <mxCell id="rV2gyTp01KgFeFo_tIqa-309" value="&lt;font size=&quot;1&quot;&gt;&lt;span style=&quot;font-size: 24px&quot;&gt;采样节点&lt;/span&gt;&lt;/font&gt;" style="text;html=1;strokeColor=none;fillColor=none;align=center;verticalAlign=middle;whiteSpace=wrap;rounded=0;fontFamily=Helvetica;fontStyle=1" vertex="1" parent="1">
          <mxGeometry x="1667.13" y="1028.26" width="214" height="20" as="geometry" />
        </mxCell>
        <mxCell id="rV2gyTp01KgFeFo_tIqa-310" value="&lt;font face=&quot;Times New Roman&quot; style=&quot;font-size: 30px&quot;&gt;&lt;b&gt;$$g_v^1$$&lt;/b&gt;&lt;/font&gt;" style="text;html=1;strokeColor=none;fillColor=none;align=center;verticalAlign=middle;whiteSpace=wrap;rounded=0;" vertex="1" parent="1">
          <mxGeometry x="1144.7399999999998" y="611.83" width="48.26" height="24" as="geometry" />
        </mxCell>
        <mxCell id="rV2gyTp01KgFeFo_tIqa-311" value="&lt;font face=&quot;Times New Roman&quot; style=&quot;font-size: 30px&quot;&gt;$$Z_v^2$$&lt;/font&gt;" style="text;html=1;strokeColor=none;fillColor=none;align=center;verticalAlign=middle;whiteSpace=wrap;rounded=0;fontStyle=1" vertex="1" parent="1">
          <mxGeometry x="1750" y="621.5" width="48.26" height="20" as="geometry" />
        </mxCell>
        <mxCell id="rV2gyTp01KgFeFo_tIqa-312" value="&lt;font size=&quot;1&quot;&gt;&lt;b style=&quot;font-size: 24px&quot;&gt;输出层&lt;/b&gt;&lt;/font&gt;" style="rounded=0;whiteSpace=wrap;html=1;fontSize=30;fillColor=#B3B3B3;strokeColor=#1A1A1A;" vertex="1" parent="1">
          <mxGeometry x="1814" y="620" width="128" height="80" as="geometry" />
        </mxCell>
        <mxCell id="rV2gyTp01KgFeFo_tIqa-313" value="" style="endArrow=blockThin;html=1;strokeColor=#000000;strokeWidth=3;exitX=1;exitY=0;exitDx=0;exitDy=0;endFill=1;" edge="1" parent="1">
          <mxGeometry width="50" height="50" relative="1" as="geometry">
            <mxPoint x="1942" y="662.8299999999999" as="sourcePoint" />
            <mxPoint x="2002" y="663" as="targetPoint" />
          </mxGeometry>
        </mxCell>
        <mxCell id="rV2gyTp01KgFeFo_tIqa-314" value="" style="endArrow=none;startArrow=block;html=1;rounded=0;fontFamily=Times New Roman;fontSize=30;startFill=1;endFill=0;" edge="1" parent="1">
          <mxGeometry width="50" height="50" relative="1" as="geometry">
            <mxPoint x="1970" y="650" as="sourcePoint" />
            <mxPoint x="1999" y="540" as="targetPoint" />
          </mxGeometry>
        </mxCell>
      </root>
    </mxGraphModel>
  </diagram>
</mxfile>
